<svg preserveAspectRatio="none" width="100%" height="100%" overflow="visible" style="display: block;" viewBox="0 0 20 20" fill="none" xmlns="http://www.w3.org/2000/svg">
<g id="ic-calendar">
<path id="Vector" d="M16.25 3.125H3.75C3.40482 3.125 3.125 3.40482 3.125 3.75V16.25C3.125 16.5952 3.40482 16.875 3.75 16.875H16.25C16.5952 16.875 16.875 16.5952 16.875 16.25V3.75C16.875 3.40482 16.5952 3.125 16.25 3.125Z" stroke="var(--stroke-0, #1C6AE4)" stroke-width="1.5" stroke-linecap="round" stroke-linejoin="round"/>
<path id="Vector_2" d="M13.75 1.875V4.375" stroke="var(--stroke-0, #1C6AE4)" stroke-width="1.5" stroke-linecap="round" stroke-linejoin="round"/>
<path id="Vector_3" d="M6.25 1.875V4.375" stroke="var(--stroke-0, #1C6AE4)" stroke-width="1.5" stroke-linecap="round" stroke-linejoin="round"/>
<path id="Vector_4" d="M3.125 6.875H16.875" stroke="var(--stroke-0, #1C6AE4)" stroke-width="1.5" stroke-linecap="round" stroke-linejoin="round"/>
<path id="Vector_5" d="M7.1875 10H9.375L8.125 11.5625C8.33072 11.5621 8.53334 11.6126 8.7149 11.7093C8.89646 11.806 9.05134 11.9461 9.16579 12.117C9.28025 12.288 9.35075 12.4845 9.37104 12.6892C9.39133 12.8939 9.36079 13.1005 9.28211 13.2906C9.20343 13.4806 9.07906 13.6484 8.92002 13.7789C8.76098 13.9093 8.5722 13.9986 8.37041 14.0386C8.16863 14.0786 7.96008 14.0683 7.76327 14.0084C7.56646 13.9485 7.38748 13.841 7.24219 13.6953" stroke="var(--stroke-0, #1C6AE4)" stroke-width="1.5" stroke-linecap="round" stroke-linejoin="round"/>
<path id="Vector_6" d="M11.25 10.9375L12.5 10V14.0625" stroke="var(--stroke-0, #1C6AE4)" stroke-width="1.5" stroke-linecap="round" stroke-linejoin="round"/>
</g>
</svg>
