<svg preserveAspectRatio="none" width="100%" height="100%" overflow="visible" style="display: block;" viewBox="0 0 20 20" fill="none" xmlns="http://www.w3.org/2000/svg">
<g id="ic-plane">
<path id="Vector" d="M7.5 16.875H18.75" stroke="var(--stroke-0, #1C6AE4)" stroke-width="1.5" stroke-linecap="round" stroke-linejoin="round"/>
<path id="Vector_2" d="M1.875 8.10156V3.99219C1.87499 3.89336 1.89842 3.79594 1.94336 3.70792C1.98831 3.6199 2.05348 3.54379 2.13354 3.48584C2.2136 3.4279 2.30626 3.38976 2.40391 3.37457C2.50157 3.35937 2.60143 3.36755 2.69531 3.39844L3.75 3.75L5 6.09375L7.5 6.875V3.99219C7.49999 3.89336 7.52342 3.79594 7.56836 3.70792C7.61331 3.6199 7.67848 3.54379 7.75854 3.48584C7.8386 3.4279 7.93126 3.38976 8.02891 3.37457C8.12657 3.35937 8.22643 3.36755 8.32031 3.39844L9.375 3.75L11.875 8.125L15.6719 9.17969C16.1981 9.32516 16.662 9.6394 16.9922 10.0741C17.3225 10.5088 17.5009 11.04 17.5 11.5859V14.375L3.70313 10.5078C3.17691 10.3623 2.71302 10.0481 2.38275 9.61338C2.05248 9.17866 1.87409 8.64751 1.875 8.10156Z" stroke="var(--stroke-0, #1C6AE4)" stroke-width="1.5" stroke-linecap="round" stroke-linejoin="round"/>
</g>
</svg>
