<svg preserveAspectRatio="none" width="100%" height="100%" overflow="visible" style="display: block;" viewBox="0 0 20 20" fill="none" xmlns="http://www.w3.org/2000/svg">
<g id="ic-plane">
<path id="Vector" d="M1.875 16.875H13.125" stroke="var(--stroke-0, #1C6AE4)" stroke-width="1.5" stroke-linecap="round" stroke-linejoin="round"/>
<path id="Vector_2" d="M1.32031 10.9687L4.26562 13.7266C4.65835 14.0947 5.15941 14.3263 5.6943 14.3868C6.22918 14.4473 6.76932 14.3336 7.23437 14.0625L19.0625 7.1875L17.6094 5.40625C17.2314 4.94458 16.7007 4.63334 16.1133 4.52875C15.5258 4.42415 14.9204 4.53311 14.4062 4.83594L10.9375 6.875L6.25 5.3125L4.96094 5.86719C4.8645 5.90852 4.78001 5.97346 4.71528 6.05603C4.65054 6.1386 4.60763 6.23614 4.59051 6.33966C4.57338 6.44318 4.5826 6.54934 4.6173 6.64836C4.652 6.74738 4.71107 6.83607 4.78906 6.90625L7.1875 9.0625L5 10.3125L2.8125 9.375L1.5 9.9375C1.40451 9.97852 1.32076 10.0427 1.25632 10.1242C1.19188 10.2058 1.14879 10.3021 1.13095 10.4045C1.11311 10.5069 1.12109 10.6121 1.15415 10.7106C1.18721 10.8091 1.24432 10.8979 1.32031 10.9687Z" stroke="var(--stroke-0, #1C6AE4)" stroke-width="1.5" stroke-linecap="round" stroke-linejoin="round"/>
</g>
</svg>
