<svg preserveAspectRatio="none" width="100%" height="100%" overflow="visible" style="display: block;" viewBox="0 0 24 24" fill="none" xmlns="http://www.w3.org/2000/svg">
<g id="ic-money">
<path id="Vector" d="M21.75 6H2.25C1.83579 6 1.5 6.33579 1.5 6.75V17.25C1.5 17.6642 1.83579 18 2.25 18H21.75C22.1642 18 22.5 17.6642 22.5 17.25V6.75C22.5 6.33579 22.1642 6 21.75 6Z" stroke="var(--stroke-0, #1C6AE4)" stroke-width="1.5" stroke-linecap="round" stroke-linejoin="round"/>
<path id="Vector_2" d="M12 15C13.6569 15 15 13.6569 15 12C15 10.3431 13.6569 9 12 9C10.3431 9 9 10.3431 9 12C9 13.6569 10.3431 15 12 15Z" stroke="var(--stroke-0, #1C6AE4)" stroke-width="1.5" stroke-linecap="round" stroke-linejoin="round"/>
<path id="Vector_3" d="M16.5 6L22.5 11.25" stroke="var(--stroke-0, #1C6AE4)" stroke-width="1.5" stroke-linecap="round" stroke-linejoin="round"/>
<path id="Vector_4" d="M16.5 18L22.5 12.75" stroke="var(--stroke-0, #1C6AE4)" stroke-width="1.5" stroke-linecap="round" stroke-linejoin="round"/>
<path id="Vector_5" d="M7.5 6L1.5 11.25" stroke="var(--stroke-0, #1C6AE4)" stroke-width="1.5" stroke-linecap="round" stroke-linejoin="round"/>
<path id="Vector_6" d="M7.5 18L1.5 12.75" stroke="var(--stroke-0, #1C6AE4)" stroke-width="1.5" stroke-linecap="round" stroke-linejoin="round"/>
</g>
</svg>
