<svg preserveAspectRatio="none" width="100%" height="100%" overflow="visible" style="display: block;" viewBox="0 0 295 64" fill="none" xmlns="http://www.w3.org/2000/svg">
<g id="barcode">
<path id="Vector" d="M0 0H5.63711V64H0V0Z" fill="var(--fill-0, #141511)"/>
<path id="Vector_2" d="M7.9693 0H11.3097V64H7.9693V0Z" fill="var(--fill-0, #141511)"/>
<path id="Vector_3" d="M13.3973 0H22.5839V64H13.3973V0Z" fill="var(--fill-0, #141511)"/>
<path id="Vector_4" d="M24.6734 0H25.8573V64H24.6734V0Z" fill="var(--fill-0, #141511)"/>
<path id="Vector_5" d="M34.6928 0H36.364V64H34.6928V0Z" fill="var(--fill-0, #141511)"/>
<path id="Vector_6" d="M39.7774 0H44.718V64H39.7774V0Z" fill="var(--fill-0, #141511)"/>
<path id="Vector_7" d="M52.0954 0H53.0701V64H52.0954V0Z" fill="var(--fill-0, #141511)"/>
<path id="Vector_8" d="M56.4125 0H63.0934V64H56.4125V0Z" fill="var(--fill-0, #141511)"/>
<path id="Vector_9" d="M66.4338 0H68.4523V64H66.4338V0Z" fill="var(--fill-0, #141511)"/>
<path id="Vector_10" d="M74.7859 0H76.1789V64H74.7859V0Z" fill="var(--fill-0, #141511)"/>
<path id="Vector_11" d="M83.1379 0H88.0095V64H83.1379V0Z" fill="var(--fill-0, #141511)"/>
<path id="Vector_12" d="M91.492 0H98.1729V64H91.492V0Z" fill="var(--fill-0, #141511)"/>
<path id="Vector_13" d="M101.513 0H103.183V64H101.513V0Z" fill="var(--fill-0, #141511)"/>
<path id="Vector_14" d="M108.194 0H109.307V64H108.194V0Z" fill="var(--fill-0, #141511)"/>
<path id="Vector_15" d="M111.258 0H112.371V64H111.258V0Z" fill="var(--fill-0, #141511)"/>
<path id="Vector_16" d="M116.546 0H118.217V64H116.546V0Z" fill="var(--fill-0, #141511)"/>
<path id="Vector_17" d="M123.507 0H129.632V64H123.507V0Z" fill="var(--fill-0, #141511)"/>
<path id="Vector_18" d="M134.363 0H136.591V64H134.363V0Z" fill="var(--fill-0, #141511)"/>
<path id="Vector_19" d="M141.602 0H146.196V64H141.602V0Z" fill="var(--fill-0, #141511)"/>
<path id="Vector_20" d="M150.789 0H152.46V64H150.789V0Z" fill="var(--fill-0, #141511)"/>
<path id="Vector_21" d="M158.307 0H159.978V64H158.307V0Z" fill="var(--fill-0, #141511)"/>
<path id="Vector_22" d="M166.657 0H167.493V64H166.657V0Z" fill="var(--fill-0, #141511)"/>
<path id="Vector_23" d="M168.561 0H169.397V64H168.561V0Z" fill="var(--fill-0, #141511)"/>
<path id="Vector_24" d="M170.465 0H171.299V64H170.465V0Z" fill="var(--fill-0, #141511)"/>
<path id="Vector_25" d="M175.011 0H178.349V64H175.011V0Z" fill="var(--fill-0, #141511)"/>
<path id="Vector_26" d="M182.388 0H187.678V64H182.388V0Z" fill="var(--fill-0, #141511)"/>
<path id="Vector_27" d="M191.713 0H195.053V64H191.713V0Z" fill="var(--fill-0, #141511)"/>
<path id="Vector_28" d="M200.065 0H201.738V64H200.065V0Z" fill="var(--fill-0, #141511)"/>
<path id="Vector_29" d="M203.547 0H205.219V64H203.547V0Z" fill="var(--fill-0, #141511)"/>
<path id="Vector_30" d="M208.419 0H210.088V64H208.419V0Z" fill="var(--fill-0, #141511)"/>
<path id="Vector_31" d="M215.518 0H221.364V64H215.518V0Z" fill="var(--fill-0, #141511)"/>
<path id="Vector_32" d="M226.792 0H228.464V64H226.792V0Z" fill="var(--fill-0, #141511)"/>
<path id="Vector_33" d="M231.942 0H238.347V64H231.942V0Z" fill="var(--fill-0, #141511)"/>
<path id="Vector_34" d="M241.827 0H246.421V64H241.827V0Z" fill="var(--fill-0, #141511)"/>
<path id="Vector_35" d="M251.43 0H253.522V64H251.43V0Z" fill="var(--fill-0, #141511)"/>
<path id="Vector_36" d="M260.617 0H261.87V64H260.617V0Z" fill="var(--fill-0, #141511)"/>
<path id="Vector_37" d="M265.003 0H272.104V64H265.003V0Z" fill="var(--fill-0, #141511)"/>
<path id="Vector_38" d="M275.236 0H276.558V64H275.236V0Z" fill="var(--fill-0, #141511)"/>
<path id="Vector_39" d="M283.586 0H285.259V64H283.586V0Z" fill="var(--fill-0, #141511)"/>
<path id="Vector_40" d="M289.99 0H295V64H289.99V0Z" fill="var(--fill-0, #141511)"/>
</g>
</svg>
