<svg preserveAspectRatio="none" width="100%" height="100%" overflow="visible" style="display: block;" viewBox="0 0 100 100" fill="none" xmlns="http://www.w3.org/2000/svg">
<g id="ic-success">
<path id="Vector" d="M50 9.375C41.9651 9.375 34.1107 11.7576 27.43 16.2215C20.7492 20.6855 15.5422 27.0302 12.4674 34.4535C9.39258 41.8767 8.58807 50.0451 10.1556 57.9255C11.7231 65.806 15.5923 73.0447 21.2738 78.7262C26.9553 84.4077 34.194 88.2769 42.0745 89.8444C49.9549 91.4119 58.1233 90.6074 65.5465 87.5326C72.9698 84.4578 79.3145 79.2508 83.7785 72.57C88.2424 65.8893 90.625 58.0349 90.625 50C90.6136 39.2291 86.3299 28.9026 78.7136 21.2863C71.0974 13.6701 60.7709 9.38637 50 9.375ZM67.8359 42.8359L45.9609 64.7109C45.6707 65.0015 45.3261 65.232 44.9467 65.3893C44.5673 65.5465 44.1607 65.6275 43.75 65.6275C43.3393 65.6275 42.9327 65.5465 42.5533 65.3893C42.1739 65.232 41.8293 65.0015 41.5391 64.7109L32.1641 55.3359C31.5777 54.7496 31.2483 53.9543 31.2483 53.125C31.2483 52.2957 31.5777 51.5004 32.1641 50.9141C32.7504 50.3277 33.5457 49.9983 34.375 49.9983C35.2043 49.9983 35.9996 50.3277 36.5859 50.9141L43.75 58.082L63.4141 38.4141C63.7044 38.1237 64.0491 37.8934 64.4284 37.7363C64.8078 37.5791 65.2144 37.4983 65.625 37.4983C66.0356 37.4983 66.4422 37.5791 66.8216 37.7363C67.2009 37.8934 67.5456 38.1237 67.8359 38.4141C68.1263 38.7044 68.3566 39.0491 68.5137 39.4284C68.6709 39.8078 68.7517 40.2144 68.7517 40.625C68.7517 41.0356 68.6709 41.4422 68.5137 41.8216C68.3566 42.2009 68.1263 42.5456 67.8359 42.8359Z" fill="var(--fill-0, #FF7A1A)"/>
</g>
</svg>
