<svg preserveAspectRatio="none" width="100%" height="100%" overflow="visible" style="display: block;" viewBox="0 0 24 24" fill="none" xmlns="http://www.w3.org/2000/svg">
<g id="ic-filter">
<path id="Vector" d="M3.94687 4.5H20.0531C20.1986 4.50005 20.3409 4.5424 20.4628 4.62191C20.5846 4.70141 20.6807 4.81463 20.7393 4.94777C20.7979 5.08092 20.8166 5.22824 20.7929 5.37179C20.7693 5.51533 20.7044 5.64891 20.6062 5.75625L14.4469 12.5344C14.3187 12.6716 14.2482 12.8529 14.25 13.0406V18.3469C14.2511 18.4715 14.2208 18.5944 14.1618 18.7042C14.1028 18.814 14.0171 18.9072 13.9125 18.975L10.9125 20.9719C10.8 21.046 10.6695 21.0884 10.5349 21.0947C10.4003 21.101 10.2665 21.0709 10.1476 21.0076C10.0286 20.9443 9.92893 20.8501 9.85897 20.7349C9.78901 20.6198 9.75136 20.4879 9.75 20.3531V13.0406C9.75181 12.8529 9.68132 12.6716 9.55312 12.5344L3.39375 5.75625C3.29555 5.64891 3.23069 5.51533 3.20707 5.37179C3.18344 5.22824 3.20208 5.08092 3.2607 4.94777C3.31933 4.81463 3.41541 4.70141 3.53724 4.62191C3.65907 4.5424 3.8014 4.50005 3.94687 4.5Z" stroke="var(--stroke-0, #141511)" stroke-width="1.5" stroke-linecap="round" stroke-linejoin="round"/>
</g>
</svg>
