<svg preserveAspectRatio="none" width="100%" height="100%" overflow="visible" style="display: block;" viewBox="0 0 20 20" fill="none" xmlns="http://www.w3.org/2000/svg">
<g id="ic-bus" clip-path="url(#clip0_2111_85)">
<g id="Vector">
</g>
<path id="Vector_2" d="M14.8438 2.5H5.15625C4.49384 2.50206 3.85915 2.76611 3.39076 3.23451C2.92236 3.7029 2.65831 4.33759 2.65625 5V16.875C2.65625 17.2065 2.78795 17.5245 3.02237 17.7589C3.25679 17.9933 3.57473 18.125 3.90625 18.125H5.78125C6.11277 18.125 6.43071 17.9933 6.66513 17.7589C6.89955 17.5245 7.03125 17.2065 7.03125 16.875V15.625H12.9688V16.875C12.9688 17.2065 13.1004 17.5245 13.3349 17.7589C13.5693 17.9933 13.8872 18.125 14.2188 18.125H16.0938C16.4253 18.125 16.7432 17.9933 16.9776 17.7589C17.2121 17.5245 17.3438 17.2065 17.3438 16.875V5C17.3417 4.33759 17.0776 3.7029 16.6092 3.23451C16.1408 2.76611 15.5062 2.50206 14.8438 2.5ZM6.40625 13.125C6.22083 13.125 6.03957 13.07 5.8854 12.967C5.73123 12.864 5.61107 12.7176 5.54011 12.5463C5.46916 12.375 5.45059 12.1865 5.48676 12.0046C5.52294 11.8227 5.61223 11.6557 5.74334 11.5246C5.87445 11.3935 6.0415 11.3042 6.22335 11.268C6.40521 11.2318 6.59371 11.2504 6.76502 11.3214C6.93632 11.3923 7.08274 11.5125 7.18575 11.6667C7.28877 11.8208 7.34375 12.0021 7.34375 12.1875C7.34375 12.4361 7.24498 12.6746 7.06916 12.8504C6.89335 13.0262 6.65489 13.125 6.40625 13.125ZM13.5938 13.125C13.4083 13.125 13.2271 13.07 13.0729 12.967C12.9187 12.864 12.7986 12.7176 12.7276 12.5463C12.6567 12.375 12.6381 12.1865 12.6743 12.0046C12.7104 11.8227 12.7997 11.6557 12.9308 11.5246C13.0619 11.3935 13.229 11.3042 13.4109 11.268C13.5927 11.2318 13.7812 11.2504 13.9525 11.3214C14.1238 11.3923 14.2702 11.5125 14.3733 11.6667C14.4763 11.8208 14.5312 12.0021 14.5312 12.1875C14.5312 12.4361 14.4325 12.6746 14.2567 12.8504C14.0808 13.0262 13.8424 13.125 13.5938 13.125ZM16.0938 9.375H3.90625V5.625H16.0938V9.375Z" fill="var(--fill-0, white)"/>
</g>
<defs>
<clipPath id="clip0_2111_85">
<rect width="20" height="20" fill="white"/>
</clipPath>
</defs>
</svg>
