<svg preserveAspectRatio="none" width="100%" height="100%" overflow="visible" style="display: block;" viewBox="0 0 24 24" fill="none" xmlns="http://www.w3.org/2000/svg">
<g id="ic-promo" clip-path="url(#clip0_2111_36)">
<g id="Vector">
</g>
<path id="Vector_2" d="M11.5031 2.42812L3.9375 3.9375L2.42812 11.5031C2.40447 11.6239 2.41092 11.7487 2.44689 11.8664C2.48285 11.9841 2.54725 12.0912 2.63438 12.1781L12.4219 21.9656C12.4909 22.0362 12.5732 22.0923 12.6642 22.1306C12.7552 22.1689 12.8529 22.1886 12.9516 22.1886C13.0503 22.1886 13.148 22.1689 13.2389 22.1306C13.3299 22.0923 13.4123 22.0362 13.4813 21.9656L21.9656 13.4813C22.0362 13.4123 22.0923 13.3299 22.1306 13.2389C22.1689 13.148 22.1886 13.0503 22.1886 12.9516C22.1886 12.8529 22.1689 12.7552 22.1306 12.6642C22.0923 12.5732 22.0362 12.4909 21.9656 12.4219L12.1781 2.63438C12.0912 2.54725 11.9841 2.48285 11.8664 2.44689C11.7487 2.41092 11.6239 2.40447 11.5031 2.42812Z" stroke="var(--stroke-0, #8C8D89)" stroke-width="1.5" stroke-linecap="round" stroke-linejoin="round"/>
<path id="Vector_3" d="M7.875 7.5C8.08211 7.5 8.25 7.66789 8.25 7.875C8.25 8.08211 8.08211 8.25 7.875 8.25C7.66789 8.25 7.5 8.08211 7.5 7.875C7.5 7.66789 7.66789 7.5 7.875 7.5Z" fill="var(--fill-0, #8C8D89)" stroke="var(--stroke-0, #8C8D89)" stroke-width="1.5"/>
</g>
<defs>
<clipPath id="clip0_2111_36">
<rect width="24" height="24" fill="white"/>
</clipPath>
</defs>
</svg>
