<svg preserveAspectRatio="none" width="100%" height="100%" overflow="visible" style="display: block;" viewBox="0 0 24 24" fill="none" xmlns="http://www.w3.org/2000/svg">
<g id="ic-home" clip-path="url(#clip0_2111_41)">
<g id="Vector">
</g>
<path id="Vector_2" d="M22.5 19.5H21V10.8281C21.0005 10.619 20.9565 10.4122 20.8708 10.2214C20.7851 10.0307 20.6598 9.86039 20.5031 9.72187L13.0031 2.90625C12.7281 2.65393 12.3685 2.51393 11.9953 2.51393C11.6221 2.51393 11.2625 2.65393 10.9875 2.90625L3.4875 9.72187C3.33394 9.86236 3.2113 10.0333 3.12737 10.2237C3.04344 10.4142 3.00007 10.62 3 10.8281V19.5H1.5C1.30109 19.5 1.11032 19.579 0.96967 19.7197C0.829018 19.8603 0.75 20.0511 0.75 20.25C0.75 20.4489 0.829018 20.6397 0.96967 20.7803C1.11032 20.921 1.30109 21 1.5 21H22.5C22.6989 21 22.8897 20.921 23.0303 20.7803C23.171 20.6397 23.25 20.4489 23.25 20.25C23.25 20.0511 23.171 19.8603 23.0303 19.7197C22.8897 19.579 22.6989 19.5 22.5 19.5ZM14.25 19.5H9.75V15C9.75 14.8011 9.82902 14.6103 9.96967 14.4697C10.1103 14.329 10.3011 14.25 10.5 14.25H13.5C13.6989 14.25 13.8897 14.329 14.0303 14.4697C14.171 14.6103 14.25 14.8011 14.25 15V19.5Z" fill="var(--fill-0, #1C6AE4)"/>
</g>
<defs>
<clipPath id="clip0_2111_41">
<rect width="24" height="24" fill="white"/>
</clipPath>
</defs>
</svg>
