<svg preserveAspectRatio="none" width="100%" height="100%" overflow="visible" style="display: block;" viewBox="0 0 20 20" fill="none" xmlns="http://www.w3.org/2000/svg">
<g id="ic-plane" clip-path="url(#clip0_2111_101)">
<g id="Vector">
</g>
<path id="Vector_2" d="M16.7969 6.73438L14.4687 8.92188L16.8281 15.4141C16.8685 15.5262 16.876 15.6476 16.8497 15.7639C16.8234 15.8801 16.7644 15.9865 16.6797 16.0703L14.8047 17.9453C14.739 18.0093 14.6604 18.0584 14.5742 18.0894C14.4879 18.1204 14.396 18.1326 14.3047 18.125C14.2139 18.1148 14.1264 18.0851 14.0482 18.0379C13.9699 17.9907 13.9029 17.9271 13.8516 17.8516L10.5234 12.9844L9.05469 14.3359V15.9375C9.05271 16.1047 8.98541 16.2645 8.86719 16.3828L7.30469 17.9453C7.24716 18.0026 7.1789 18.0479 7.10383 18.0787C7.02876 18.1096 6.94834 18.1253 6.86719 18.125L6.72656 18.1094C6.62268 18.0859 6.52652 18.0362 6.44721 17.9651C6.36791 17.894 6.30809 17.8038 6.27344 17.7031L5.26562 14.7266L2.28906 13.7188C2.18835 13.6841 2.09816 13.6243 2.02706 13.545C1.95596 13.4657 1.90631 13.3695 1.88281 13.2656C1.86014 13.162 1.86325 13.0544 1.89185 12.9522C1.92045 12.8501 1.97368 12.7565 2.04687 12.6797L3.60937 11.1172C3.72844 11.0011 3.88841 10.9366 4.05469 10.9375H5.67187L7.13281 9.46875L2.14062 6.14844C2.06619 6.09415 2.00356 6.0253 1.95656 5.94606C1.90955 5.86682 1.87915 5.77885 1.86719 5.6875C1.85847 5.59489 1.87003 5.50149 1.90106 5.41379C1.93209 5.32609 1.98185 5.24621 2.04687 5.17969L3.92187 3.30469C4.00603 3.22043 4.11277 3.16233 4.22921 3.13738C4.34566 3.11242 4.46683 3.12169 4.57812 3.16406L11.0703 5.52344L13.1484 3.32031C13.1702 3.28807 13.1965 3.25913 13.2266 3.23438C13.6848 2.7883 14.2966 2.53479 14.936 2.52599C15.5755 2.5172 16.194 2.75379 16.6643 3.1871C17.1346 3.62041 17.421 4.21748 17.4646 4.85551C17.5081 5.49353 17.3055 6.12399 16.8984 6.61719C16.8709 6.66129 16.8366 6.70083 16.7969 6.73438Z" fill="var(--fill-0, white)"/>
</g>
<defs>
<clipPath id="clip0_2111_101">
<rect width="20" height="20" fill="white"/>
</clipPath>
</defs>
</svg>
