<svg preserveAspectRatio="none" width="100%" height="100%" overflow="visible" style="display: block;" viewBox="0 0 20 20" fill="none" xmlns="http://www.w3.org/2000/svg">
<g id="ic-train" clip-path="url(#clip0_2111_45)">
<g id="Vector">
</g>
<path id="Vector_2" d="M14.6875 1.875H5.3125C4.65009 1.87706 4.0154 2.14111 3.54701 2.60951C3.07861 3.0779 2.81456 3.71259 2.8125 4.375V14.375C2.81456 15.0374 3.07861 15.6721 3.54701 16.1405C4.0154 16.6089 4.65009 16.8729 5.3125 16.875H6.25L5.125 18.375C5.02554 18.5076 4.98284 18.6743 5.00628 18.8384C5.02972 19.0025 5.11739 19.1505 5.25 19.25C5.35735 19.3327 5.48949 19.3768 5.625 19.375C5.72203 19.375 5.81772 19.3524 5.90451 19.309C5.99129 19.2656 6.06678 19.2026 6.125 19.125L7.8125 16.875H12.1875L13.875 19.125C13.9332 19.2026 14.0087 19.2656 14.0955 19.309C14.1823 19.3524 14.278 19.375 14.375 19.375C14.5105 19.3768 14.6426 19.3327 14.75 19.25C14.8157 19.2008 14.871 19.1391 14.9128 19.0684C14.9546 18.9978 14.9821 18.9196 14.9937 18.8384C15.0053 18.7571 15.0008 18.6744 14.9804 18.5949C14.9601 18.5154 14.9242 18.4407 14.875 18.375L13.75 16.875H14.6875C15.3499 16.8729 15.9846 16.6089 16.453 16.1405C16.9214 15.6721 17.1854 15.0374 17.1875 14.375V4.375C17.1854 3.71259 16.9214 3.0779 16.453 2.60951C15.9846 2.14111 15.3499 1.87706 14.6875 1.875ZM6.5625 14.375C6.37708 14.375 6.19582 14.32 6.04165 14.217C5.88748 14.114 5.76732 13.9676 5.69636 13.7963C5.62541 13.625 5.60684 13.4365 5.64301 13.2546C5.67919 13.0727 5.76848 12.9057 5.89959 12.7746C6.0307 12.6435 6.19775 12.5542 6.3796 12.518C6.56146 12.4818 6.74996 12.5004 6.92127 12.5714C7.09257 12.6423 7.23899 12.7625 7.342 12.9167C7.44502 13.0708 7.5 13.2521 7.5 13.4375C7.5 13.6861 7.40123 13.9246 7.22541 14.1004C7.0496 14.2762 6.81114 14.375 6.5625 14.375ZM9.375 9.375H4.0625V6.25H9.375V9.375ZM13.4375 14.375C13.2521 14.375 13.0708 14.32 12.9167 14.217C12.7625 14.114 12.6423 13.9676 12.5714 13.7963C12.5004 13.625 12.4818 13.4365 12.518 13.2546C12.5542 13.0727 12.6435 12.9057 12.7746 12.7746C12.9057 12.6435 13.0727 12.5542 13.2546 12.518C13.4365 12.4818 13.625 12.5004 13.7963 12.5714C13.9676 12.6423 14.114 12.7625 14.217 12.9167C14.32 13.0708 14.375 13.2521 14.375 13.4375C14.375 13.6861 14.2762 13.9246 14.1004 14.1004C13.9246 14.2762 13.6861 14.375 13.4375 14.375ZM15.9375 9.375H10.625V6.25H15.9375V9.375Z" fill="var(--fill-0, white)"/>
</g>
<defs>
<clipPath id="clip0_2111_45">
<rect width="20" height="20" fill="white"/>
</clipPath>
</defs>
</svg>
