<svg preserveAspectRatio="none" width="100%" height="100%" overflow="visible" style="display: block;" viewBox="0 0 20 20" fill="none" xmlns="http://www.w3.org/2000/svg">
<g id="ic-chair" clip-path="url(#clip0_2115_287)">
<g id="Vector">
</g>
<path id="Vector_2" d="M16.875 12.4219V15.625C16.875 15.9565 16.7433 16.2745 16.5089 16.5089C16.2745 16.7433 15.9565 16.875 15.625 16.875H4.375C4.04348 16.875 3.72554 16.7433 3.49112 16.5089C3.2567 16.2745 3.125 15.9565 3.125 15.625V12.4219C2.67232 12.305 2.26148 12.0635 1.93914 11.7249C1.61681 11.3862 1.3959 10.964 1.30149 10.5061C1.20709 10.0482 1.24298 9.57295 1.40509 9.13443C1.5672 8.6959 1.84903 8.31162 2.21857 8.02522C2.58811 7.73883 3.03056 7.56179 3.49567 7.51423C3.96077 7.46667 4.4299 7.55048 4.84976 7.75615C5.26962 7.96182 5.6234 8.2811 5.87092 8.67774C6.11843 9.07437 6.24976 9.53247 6.25 10V13.125C6.25 13.2908 6.31585 13.4497 6.43306 13.5669C6.55027 13.6842 6.70924 13.75 6.875 13.75C7.04076 13.75 7.19973 13.6842 7.31694 13.5669C7.43415 13.4497 7.5 13.2908 7.5 13.125V10.625H12.5V13.125C12.5 13.2908 12.5658 13.4497 12.6831 13.5669C12.8003 13.6842 12.9592 13.75 13.125 13.75C13.2908 13.75 13.4497 13.6842 13.5669 13.5669C13.6842 13.4497 13.75 13.2908 13.75 13.125V10C13.7502 9.53247 13.8816 9.07437 14.1291 8.67774C14.3766 8.2811 14.7304 7.96182 15.1502 7.75615C15.5701 7.55048 16.0392 7.46667 16.5043 7.51423C16.9694 7.56179 17.4119 7.73883 17.7814 8.02522C18.151 8.31162 18.4328 8.6959 18.5949 9.13443C18.757 9.57295 18.7929 10.0482 18.6985 10.5061C18.6041 10.964 18.3832 11.3862 18.0609 11.7249C17.7385 12.0635 17.3277 12.305 16.875 12.4219ZM7.44531 9.375H12.5547C12.7023 8.50157 13.1544 7.70861 13.8308 7.13661C14.5072 6.56462 15.3642 6.25053 16.25 6.25H16.5391C16.5816 6.25439 16.6246 6.24977 16.6653 6.23643C16.7059 6.2231 16.7433 6.20135 16.775 6.17261C16.8067 6.14386 16.832 6.10877 16.8492 6.06961C16.8664 6.03045 16.8752 5.9881 16.875 5.94531V5.625C16.875 4.7962 16.5458 4.00134 15.9597 3.41529C15.3737 2.82924 14.5788 2.5 13.75 2.5H6.25C5.4212 2.5 4.62634 2.82924 4.04029 3.41529C3.45424 4.00134 3.125 4.7962 3.125 5.625V5.95312C3.12477 5.99591 3.13356 6.03826 3.15079 6.07742C3.16802 6.11658 3.1933 6.15168 3.22499 6.18042C3.25668 6.20916 3.29407 6.23091 3.33472 6.24424C3.37537 6.25758 3.41838 6.2622 3.46094 6.25781H3.75C4.63468 6.25803 5.4908 6.57101 6.16703 7.14144C6.84325 7.71187 7.29602 8.503 7.44531 9.375Z" fill="var(--fill-0, #FF7A1A)"/>
</g>
<defs>
<clipPath id="clip0_2115_287">
<rect width="20" height="20" fill="white"/>
</clipPath>
</defs>
</svg>
