<svg preserveAspectRatio="none" width="100%" height="100%" overflow="visible" style="display: block;" viewBox="0 0 24 24" fill="none" xmlns="http://www.w3.org/2000/svg">
<g id="ic-chair" clip-path="url(#clip0_2115_255)">
<g id="Vector">
</g>
<path id="Vector_2" d="M7.5 3.375H16.5C17.3951 3.375 18.2538 3.73035 18.8867 4.36328C19.5197 4.99622 19.875 5.85489 19.875 6.75V7.125H19.5L19.2842 7.12988C18.2098 7.17806 17.1788 7.58026 16.3545 8.27734C15.5567 8.95202 15.0006 9.8638 14.7607 10.875H9.23828C8.9967 9.86559 8.44011 8.95605 7.64258 8.2832C6.76349 7.54165 5.65009 7.13504 4.5 7.13477H4.125V6.75C4.125 5.85489 4.48035 4.99622 5.11328 4.36328C5.74622 3.73035 6.60489 3.375 7.5 3.375ZM4.125 14.6162L3.84375 14.543C3.36851 14.4203 2.93705 14.167 2.59863 13.8115C2.26018 13.4559 2.02783 13.012 1.92871 12.5312C1.8297 12.0507 1.86802 11.552 2.03809 11.0918C2.20826 10.6315 2.50372 10.2275 2.8916 9.92676C3.27962 9.62604 3.74504 9.43959 4.2334 9.38965C4.72152 9.33982 5.21364 9.42873 5.6543 9.64453C6.09497 9.86039 6.46669 10.1951 6.72656 10.6113C6.98642 11.0277 7.12472 11.5092 7.125 12V15.75C7.125 16.0484 7.24312 16.3349 7.4541 16.5459C7.66508 16.7569 7.95163 16.875 8.25 16.875C8.54837 16.875 8.83492 16.7569 9.0459 16.5459C9.25688 16.3349 9.375 16.0484 9.375 15.75V13.125H14.625V15.75C14.625 16.0484 14.7431 16.3349 14.9541 16.5459C15.1651 16.7569 15.4516 16.875 15.75 16.875C16.0484 16.875 16.3349 16.7569 16.5459 16.5459C16.7569 16.3349 16.875 16.0484 16.875 15.75V12L16.8818 11.8164C16.912 11.3899 17.0461 10.9757 17.2734 10.6113C17.5333 10.1951 17.905 9.86039 18.3457 9.64453C18.7864 9.42873 19.2785 9.33982 19.7666 9.38965C20.255 9.43959 20.7204 9.62604 21.1084 9.92676C21.4963 10.2275 21.7917 10.6315 21.9619 11.0918C22.132 11.552 22.1703 12.0507 22.0713 12.5312C21.9722 13.012 21.7398 13.4559 21.4014 13.8115C21.0629 14.167 20.6315 14.4203 20.1562 14.543L19.875 14.6162V18.75C19.875 19.0484 19.7569 19.3349 19.5459 19.5459C19.3349 19.7569 19.0484 19.875 18.75 19.875H5.25C4.95163 19.875 4.66508 19.7569 4.4541 19.5459C4.24312 19.3349 4.125 19.0484 4.125 18.75V14.6162Z" fill="var(--fill-0, #EEF0EB)" stroke="var(--stroke-0, #EEF0EB)" stroke-width="0.75"/>
</g>
<defs>
<clipPath id="clip0_2115_255">
<rect width="24" height="24" fill="white"/>
</clipPath>
</defs>
</svg>
