<svg preserveAspectRatio="none" width="100%" height="100%" overflow="visible" style="display: block;" viewBox="0 0 24 24" fill="none" xmlns="http://www.w3.org/2000/svg">
<g id="ic-chair" clip-path="url(#clip0_2115_267)">
<g id="Vector">
</g>
<path id="Vector_2" d="M20.25 14.9062V18.75C20.25 19.1478 20.092 19.5294 19.8107 19.8107C19.5294 20.092 19.1478 20.25 18.75 20.25H5.25C4.85218 20.25 4.47064 20.092 4.18934 19.8107C3.90804 19.5294 3.75 19.1478 3.75 18.75V14.9062C3.20678 14.766 2.71377 14.4762 2.32697 14.0698C1.94017 13.6634 1.67508 13.1567 1.56179 12.6073C1.44851 12.0578 1.49158 11.4875 1.68611 10.9613C1.88064 10.4351 2.21883 9.97394 2.66229 9.63027C3.10574 9.28659 3.63667 9.07415 4.1948 9.01708C4.75293 8.96 5.31587 9.06057 5.81971 9.30738C6.32355 9.55418 6.74808 9.93732 7.0451 10.4133C7.34212 10.8892 7.49972 11.439 7.5 12V15.75C7.5 15.9489 7.57902 16.1397 7.71967 16.2803C7.86032 16.421 8.05109 16.5 8.25 16.5C8.44891 16.5 8.63968 16.421 8.78033 16.2803C8.92098 16.1397 9 15.9489 9 15.75V12.75H15V15.75C15 15.9489 15.079 16.1397 15.2197 16.2803C15.3603 16.421 15.5511 16.5 15.75 16.5C15.9489 16.5 16.1397 16.421 16.2803 16.2803C16.421 16.1397 16.5 15.9489 16.5 15.75V12C16.5003 11.439 16.6579 10.8892 16.9549 10.4133C17.2519 9.93732 17.6765 9.55418 18.1803 9.30738C18.6841 9.06057 19.2471 8.96 19.8052 9.01708C20.3633 9.07415 20.8943 9.28659 21.3377 9.63027C21.7812 9.97394 22.1194 10.4351 22.3139 10.9613C22.5084 11.4875 22.5515 12.0578 22.4382 12.6073C22.3249 13.1567 22.0598 13.6634 21.673 14.0698C21.2862 14.4762 20.7932 14.766 20.25 14.9062ZM8.93438 11.25H15.0656C15.2428 10.2019 15.7853 9.25033 16.5969 8.56393C17.4086 7.87754 18.437 7.50063 19.5 7.5H19.8469C19.8979 7.50527 19.9496 7.49972 19.9983 7.48372C20.0471 7.46772 20.092 7.44162 20.13 7.40713C20.168 7.37264 20.1984 7.33052 20.2191 7.28353C20.2397 7.23654 20.2503 7.18571 20.25 7.13437V6.75C20.25 5.75544 19.8549 4.80161 19.1517 4.09835C18.4484 3.39509 17.4946 3 16.5 3H7.5C6.50544 3 5.55161 3.39509 4.84835 4.09835C4.14509 4.80161 3.75 5.75544 3.75 6.75V7.14375C3.74973 7.19509 3.76027 7.24591 3.78095 7.2929C3.80162 7.3399 3.83196 7.38201 3.86999 7.4165C3.90802 7.451 3.95288 7.47709 4.00167 7.49309C4.05045 7.50909 4.10206 7.51464 4.15312 7.50937H4.5C5.56162 7.50963 6.58896 7.88521 7.40043 8.56973C8.2119 9.25424 8.75523 10.2036 8.93438 11.25Z" fill="var(--fill-0, #8C8D89)"/>
</g>
<defs>
<clipPath id="clip0_2115_267">
<rect width="24" height="24" fill="white"/>
</clipPath>
</defs>
</svg>
