<svg preserveAspectRatio="none" width="100%" height="100%" overflow="visible" style="display: block;" viewBox="0 0 20 20" fill="none" xmlns="http://www.w3.org/2000/svg">
<g id="ic-chair" clip-path="url(#clip0_2115_275)">
<g id="Vector">
</g>
<path id="Vector_2" d="M6.25 2.875H13.75C14.4793 2.875 15.1786 3.16494 15.6943 3.68066C16.2101 4.19639 16.5 4.89565 16.5 5.625V5.875H16.25L16.0674 5.87891C15.1582 5.91967 14.2864 6.26074 13.5889 6.85059C12.9265 7.41073 12.461 8.16362 12.252 9H7.74902C7.53862 8.16487 7.07153 7.41324 6.40918 6.85449C5.66534 6.22702 4.72315 5.88305 3.75 5.88281H3.5V5.625C3.5 4.89565 3.78994 4.19639 4.30566 3.68066C4.82139 3.16494 5.52065 2.875 6.25 2.875ZM3.5 12.1318L3.21875 12.0586C2.83413 11.9593 2.48486 11.7545 2.21094 11.4668C1.93704 11.179 1.74923 10.8197 1.66895 10.4307C1.58872 10.0415 1.6191 9.63735 1.75684 9.26465C1.89463 8.8919 2.13413 8.56473 2.44824 8.32129C2.76233 8.07791 3.1389 7.92812 3.53418 7.8877C3.92933 7.84735 4.32784 7.91809 4.68457 8.09277C5.04137 8.26755 5.34235 8.53894 5.55273 8.87598C5.76309 9.21306 5.87476 9.60266 5.875 10V13.125C5.875 13.3902 5.98043 13.6445 6.16797 13.832C6.35551 14.0196 6.60978 14.125 6.875 14.125C7.14022 14.125 7.39449 14.0196 7.58203 13.832C7.76957 13.6445 7.875 13.3902 7.875 13.125V11H12.125V13.125C12.125 13.3902 12.2304 13.6445 12.418 13.832C12.6055 14.0196 12.8598 14.125 13.125 14.125C13.3902 14.125 13.6445 14.0196 13.832 13.832C14.0196 13.6445 14.125 13.3902 14.125 13.125V10L14.1299 9.85156C14.1543 9.50621 14.2632 9.17097 14.4473 8.87598C14.6576 8.53894 14.9586 8.26755 15.3154 8.09277C15.6722 7.91809 16.0707 7.84735 16.4658 7.8877C16.8611 7.92812 17.2377 8.07792 17.5518 8.32129C17.8659 8.56473 18.1054 8.8919 18.2432 9.26465C18.3809 9.63735 18.4113 10.0415 18.3311 10.4307C18.2508 10.8197 18.063 11.179 17.7891 11.4668C17.5151 11.7545 17.1659 11.9593 16.7812 12.0586L16.5 12.1318V15.625C16.5 15.8571 16.4082 16.08 16.2441 16.2441C16.08 16.4082 15.8571 16.5 15.625 16.5H4.375C4.14294 16.5 3.91995 16.4082 3.75586 16.2441C3.59176 16.08 3.5 15.8571 3.5 15.625V12.1318Z" fill="var(--fill-0, #EEF0EB)" stroke="var(--stroke-0, #EEF0EB)" stroke-width="0.75"/>
</g>
<defs>
<clipPath id="clip0_2115_275">
<rect width="20" height="20" fill="white"/>
</clipPath>
</defs>
</svg>
