<svg preserveAspectRatio="none" width="100%" height="100%" overflow="visible" style="display: block;" viewBox="0 0 20 20" fill="none" xmlns="http://www.w3.org/2000/svg">
<g id="ic-plane">
<path id="Vector" d="M5.625 16.875H16.875" stroke="var(--stroke-0, #1C6AE4)" stroke-width="1.7" stroke-linecap="round" stroke-linejoin="round"/>
<path id="Vector_2" d="M2.09375 6.25H3.4375L5 8.125H7.5L6.52344 5.19531C6.49255 5.10143 6.48437 5.00157 6.49957 4.90391C6.51476 4.80626 6.5529 4.7136 6.61084 4.63354C6.66879 4.55348 6.7449 4.48831 6.83292 4.44336C6.92094 4.39842 7.01836 4.37499 7.11719 4.375H8.4375L11.875 8.125H16.25C16.913 8.125 17.5489 8.38839 18.0178 8.85723C18.4866 9.32607 18.75 9.96196 18.75 10.625V12.5H4.98438C4.44745 12.4992 3.92505 12.3255 3.4945 12.0047C3.06395 11.6839 2.74812 11.233 2.59375 10.7187L1.49219 7.05469C1.4641 6.96112 1.45834 6.86227 1.47536 6.76608C1.49239 6.66988 1.53172 6.57901 1.59022 6.50077C1.64871 6.42253 1.72473 6.35908 1.81218 6.31553C1.89962 6.27198 1.99606 6.24954 2.09375 6.25Z" stroke="var(--stroke-0, #1C6AE4)" stroke-width="1.7" stroke-linecap="round" stroke-linejoin="round"/>
</g>
</svg>
